<svg xmlns="http://www.w3.org/2000/svg" width="110" height="40" viewBox="0 0 110 40" role="img" aria-labelledby="paypalTitle">
  <title id="paypalTitle">PayPal</title>
  <rect width="110" height="40" rx="6" fill="#fff"/>
  <path fill="#003087" d="M17.7 8.6h13.5c4.6 0 7.4 2.6 6.7 6.8-.8 5-4.2 7.7-9.1 7.7h-4.3l-1.4 8.3h-6.6l3.2-20.2c.2-1.4-.7-2.6-2-2.6z"/>
  <path fill="#009cde" d="M25.4 14.2h5.1c1.7 0 2.6.9 2.3 2.4-.3 1.9-1.6 2.9-3.5 2.9h-4.7l.8-5.3z"/>
  <path fill="#003087" d="M42.8 14.2h4.7l-.3 1.8c1.1-1.3 2.6-2.1 4.5-2.1 4 0 6.3 3.3 5.5 8.2-.9 5.7-4.5 9.4-9.1 9.4-1.7 0-3-.5-3.8-1.5l-1.1 6.8h-4.9l3.5-22.6zm5.3 13.1c2.2 0 3.8-1.9 4.2-4.8.4-2.6-.6-4.3-2.8-4.3s-3.8 1.8-4.2 4.5c-.4 2.7.6 4.6 2.8 4.6z"/>
  <path fill="#003087" d="M60.6 14.2h4.9l-2.7 17.1h-4.9l2.7-17.1zm1-6h4.9l-.7 4.1h-4.9l.7-4.1z"/>
  <path fill="#003087" d="M68.7 8.2h4.9l-3.7 23.1H65l3.7-23.1z"/>
  <path fill="#009cde" d="M77.7 14.2h4.7l-.3 1.8c1.1-1.3 2.6-2.1 4.5-2.1 4 0 6.3 3.3 5.5 8.2-.9 5.7-4.5 9.4-9.1 9.4-1.7 0-3-.5-3.8-1.5l-1.1 6.8h-4.9l3.5-22.6zm5.3 13.1c2.2 0 3.8-1.9 4.2-4.8.4-2.6-.6-4.3-2.8-4.3s-3.8 1.8-4.2 4.5c-.4 2.7.6 4.6 2.8 4.6z"/>
  <path fill="#003087" d="M95.4 14.2h4.9l-2.7 17.1h-4.9l2.7-17.1zm1-6h4.9l-.7 4.1h-4.9l.7-4.1z"/>
</svg>
