<svg xmlns="http://www.w3.org/2000/svg" width="96" height="40" viewBox="0 0 96 40" role="img" aria-labelledby="stripeTitle">
  <title id="stripeTitle">Stripe</title>
  <rect width="96" height="40" rx="6" fill="#635bff"/>
  <path fill="#fff" d="M42.9 18.1c0-1.1.9-1.5 2.4-1.5 2.1 0 4.7.6 6.8 1.8v-6.4c-2.3-.9-4.6-1.3-6.8-1.3-5.6 0-9.3 2.9-9.3 7.8 0 7.6 10.5 6.4 10.5 9.7 0 1.3-1.1 1.7-2.7 1.7-2.3 0-5.2-.9-7.5-2.2v6.5c2.6 1.1 5.2 1.6 7.5 1.6 5.7 0 9.6-2.8 9.6-7.8 0-8.2-10.5-6.7-10.5-9.9z"/>
  <path fill="#fff" d="M61.6 5.6l-6.8 1.4v21.8c0 4 3 7 7 7 2.2 0 3.8-.4 4.7-1v-5.7c-.9.3-5.1 1.4-5.1-2.4v-9h5.1v-6h-5.1V5.6z"/>
  <path fill="#fff" d="M75.2 13.8l-.4-2.1h-6v23.6h6.9V19.4c1.6-2.1 4.3-1.7 5.2-1.4v-6.3c-.9-.3-4.1-.9-5.7 2.1z"/>
  <path fill="#fff" d="M26.1 11.7h6.9v23.6h-6.9zM26.1 4.6l6.9-1.5v5.6l-6.9 1.5z"/>
  <path fill="#fff" d="M14.7 18.1c0-1.1.9-1.5 2.4-1.5 2.1 0 4.7.6 6.8 1.8v-6.4c-2.3-.9-4.6-1.3-6.8-1.3-5.6 0-9.3 2.9-9.3 7.8 0 7.6 10.5 6.4 10.5 9.7 0 1.3-1.1 1.7-2.7 1.7-2.3 0-5.2-.9-7.5-2.2v6.5c2.6 1.1 5.2 1.6 7.5 1.6 5.7 0 9.6-2.8 9.6-7.8 0-8.2-10.5-6.7-10.5-9.9z"/>
</svg>
